<svg width="15" height="17" viewBox="0 0 15 17" fill="none" xmlns="http://www.w3.org/2000/svg">
<path d="M12.25 2.16667V4.54167C12.25 4.9616 12.0832 5.36432 11.7863 5.66126C11.4893 5.95819 11.0866 6.12501 10.6667 6.12501H4.33333C3.91341 6.12501 3.51068 5.95819 3.21375 5.66126C2.91682 5.36432 2.75 4.9616 2.75 4.54167V2.16667C2.12011 2.16667 1.51602 2.41689 1.07062 2.86229C0.625223 3.30769 0.375 3.91178 0.375 4.54167V14.0417C0.375 14.6716 0.625223 15.2757 1.07062 15.7211C1.51602 16.1665 2.12011 16.4167 2.75 16.4167H12.25C12.8799 16.4167 13.484 16.1665 13.9294 15.7211C14.3748 15.2757 14.625 14.6716 14.625 14.0417V4.54167C14.625 3.91178 14.3748 3.30769 13.9294 2.86229C13.484 2.41689 12.8799 2.16667 12.25 2.16667Z" fill="white"/>
<path d="M10.6667 0.583336H4.33341C3.89619 0.583336 3.54175 0.937777 3.54175 1.375V4.54167C3.54175 4.97889 3.89619 5.33333 4.33341 5.33333H10.6667C11.104 5.33333 11.4584 4.97889 11.4584 4.54167V1.375C11.4584 0.937777 11.104 0.583336 10.6667 0.583336Z" fill="white"/>
</svg>
